<svg xmlns="http://www.w3.org/2000/svg" viewBox="0 0 24 24">
  <defs>
    <linearGradient id="bg" x1="0%" y1="0%" x2="100%" y2="100%">
      <stop offset="0%" style="stop-color:#2d50a7" />
      <stop offset="100%" style="stop-color:#45a6ff" />
    </linearGradient>
  </defs>
  <path fill="url(#bg)" d="M0 12C0 0 0 0 12 0S24 0 24 12 24 24 12 24 0 24 0 12" />
  <path
    fill="#ffffff"
    d="M12 2C8 2 4 2.5 4 6V15.5A3.5 3.5 0 007.5 19L6 20.5V21H8.23L10.23 19H14L16 21H18V20.5L16.5 19A3.5 3.5 0 0020 15.5V6C20 2.5 16.42 2 12 2M7.5 17A1.5 1.5 0 016 15.5 1.5 1.5 0 017.5 14 1.5 1.5 0 019 15.5 1.5 1.5 0 017.5 17M11 10H6V6H11V10M13 10V6H18V10H13M16.5 17A1.5 1.5 0 0115 15.5 1.5 1.5 0 0116.5 14 1.5 1.5 0 0118 15.5 1.5 1.5 0 0116.5 17Z" />
</svg>